# xmcd
#
# Track frame offsets: 
#        150
#        16093
#        30680
#        47684
#        65504
#        83674
#        101169
#        117314
#        133252
#        151353
#        166585
#        183760
#        201099
#        216467
#        232196
#        249511
#        264402
#        281700
#        297227
#        310846
#
# Disc length: 4343 seconds
#
# Revision: 0
# Processed by: cddbd v1.5.2PL0 Copyright (c) Steve Scherf et al.
# Submitted via: ExactAudioCopy v1.1
#
DISCID=1f10f514
DTITLE=Various Artist - MNM Back To The 90s and Nillies - Party Edition 2019 - 
DTITLE=CD 1
DYEAR=2019
DGENRE=Top 40
TTITLE0=Gala - Freed From Desire
TTITLE1=P!nk - Get The Party Started
TTITLE2=Captain Hollywood Project - Flying High
TTITLE3=Vanessa Carlton - A Thousand Miles
TTITLE4=Dr. Alban - It's My Life
TTITLE5=112 - Dance With Me
TTITLE6=Faithless - God Is A DJ
TTITLE7=Anouk - Girl
TTITLE8=TLC - No Scrubs
TTITLE9=Sylver - Love Is An Angel
TTITLE10=Phats and Small - Turn Around
TTITLE11=Kylie Minogue - Can't Get You Out Of My Head
TTITLE12=Mark Morrison - Return Of The Mack
TTITLE13=Roger Sanchez - Another Chance
TTITLE14=B.B. Jerome and The Bang Gang - Shock Rock
TTITLE15=Cascada - Everytime We Touch
TTITLE16=Salt 'N' Pepa Feat. En Vogue - Whatta Man
TTITLE17=Maroon 5 - This Love
TTITLE18=The Outhere Brothers - Boom Boom Boom
TTITLE19=Britney Spears - Toxic
EXTD=
EXTT0=
EXTT1=
EXTT2=
EXTT3=
EXTT4=
EXTT5=
EXTT6=
EXTT7=
EXTT8=
EXTT9=
EXTT10=
EXTT11=
EXTT12=
EXTT13=
EXTT14=
EXTT15=
EXTT16=
EXTT17=
EXTT18=
EXTT19=
PLAYORDER=
